<?xml version="1.0" encoding="UTF-8"?>
<svg width="94px" height="33px" viewBox="0 0 94 33" version="1.1" xmlns="http://www.w3.org/2000/svg" xmlns:xlink="http://www.w3.org/1999/xlink">
    <defs>
        <polygon id="path-1" points="93.612 32.8785823 93.612 3.92857143e-05 0 3.92857143e-05 0 32.8785823 93.612 32.8785823"></polygon>
    </defs>
    <g id="Page-1" stroke="none" stroke-width="1" fill="none" fill-rule="evenodd">
        <g id="Login" transform="translate(-612.000000, -696.000000)">
            <g id="Group-7" transform="translate(409.000000, 122.000000)">
                <g id="Group-6" transform="translate(40.000000, 561.000000)">
                    <g id="Group-2-Copy-3" transform="translate(163.000000, 13.000000)">
                        <g id="Page-1">
                            <mask id="mask-2" fill="white">
                                <use xlink:href="#path-1"></use>
                            </mask>
                            <g id="Clip-2"></g>
                            <path d="M43.64032,0.867507143 C43.64032,0.867507143 46.76192,1.77815 48.04872,4.06379286 C48.04872,4.06379286 49.58112,3.02311429 48.61592,1.10911429 C47.65112,-0.804885714 44.60512,0.198864286 43.64032,0.867507143 L43.64032,0.867507143 Z M42.92152,1.79661429 C42.92152,1.79661429 42.14592,5.27143571 45.04032,5.43879286 C45.04032,5.43879286 46.32672,5.49418571 47.17832,4.80668571 C47.17832,4.80668571 45.53192,2.3914 42.92152,1.79661429 L42.92152,1.79661429 Z M52.86952,23.7388643 C49.57232,32.0584 43.60312,32.8401857 43.60312,32.8401857 C50.25432,31.2208286 52.18752,28.1498643 54.74592,24.52065 C57.30392,20.8914357 57.24752,14.1346857 55.65552,10.2265429 C54.06392,6.31800714 50.53872,6.37379286 50.53872,6.37379286 C53.15392,8.99807857 56.16712,15.4193286 52.86952,23.7388643 L52.86952,23.7388643 Z M48.85832,6.53643571 L46.98312,7.37361429 C46.98312,7.37361429 50.27912,11.0570429 49.59712,16.5821857 C48.91512,22.1069357 47.21032,29.3622214 40.90272,31.53865 C39.85872,31.8992929 38.97032,31.8101143 38.21512,31.4097929 C38.21512,31.4097929 39.36872,32.8782929 41.18712,32.8782929 C41.18712,32.8782929 41.96712,32.9018643 42.97712,32.5235429 C46.04592,31.37365 52.20872,27.6096857 52.89272,17.0284714 C53.18312,12.5377214 51.46312,9.1619 48.98632,6.64761429 L48.85832,6.53643571 Z M72.17832,17.5902571 C72.17832,17.5902571 70.01912,17.43115 70.01912,19.3864 C70.01912,21.3408643 72.03592,21.2952929 72.03592,21.2952929 C72.03592,21.2952929 73.98192,21.36365 73.98192,19.6134714 C73.98192,17.8632929 72.74792,17.5902571 72.17832,17.5902571 L72.17832,17.5902571 Z M43.44352,20.9464357 L46.58352,20.9464357 L46.58352,9.16425714 L43.44352,9.16425714 L43.44352,20.9464357 Z M35.21392,21.0529 L37.60552,21.0529 L42.18032,9.2279 L39.07992,9.2279 C39.07992,9.2279 37.03832,15.5360071 36.89752,15.99565 C36.67512,16.7236143 36.58192,17.2237214 36.58192,17.2237214 C36.58192,16.8626857 36.28472,16.1158643 36.28472,16.1158643 L33.90592,9.08372143 L30.05632,9.08372143 L35.21392,21.0529 Z M86.64592,21.0529 L89.03752,21.0529 L93.61232,9.2279 L90.51192,9.2279 C90.51192,9.2279 88.46992,15.5360071 88.32952,15.99565 C88.10712,16.7236143 88.01392,17.2237214 88.01392,17.2237214 C88.01392,16.8626857 87.71632,16.1158643 87.71632,16.1158643 L85.33792,9.08372143 L81.48792,9.08372143 L86.64592,21.0529 Z M76.44112,11.6742214 L76.44112,18.4109357 C76.44112,18.4109357 76.69672,21.3620786 79.44592,21.3620786 C79.44592,21.3620786 81.45832,21.4732571 82.81872,20.58265 L82.22352,18.2439714 C82.22352,18.2439714 81.45832,18.6340786 80.72152,18.6340786 C79.98432,18.6340786 79.53112,17.9937214 79.44592,16.8799714 L79.50032,11.6742214 L79.52792,9.0849 L79.55912,4.55800714 L76.44112,4.55132857 L76.41312,9.0849 L76.44112,11.6742214 Z M30.26312,18.2439714 C30.26312,18.2439714 29.49792,18.6340786 28.76072,18.6340786 C28.02392,18.6340786 27.57032,17.9937214 27.48552,16.8799714 L27.54032,11.6742214 L30.43312,11.6742214 L30.43312,9.0849 L27.56752,9.0849 L27.59872,6.10625714 L24.48072,6.99725714 L24.48072,9.0849 L24.45232,9.0849 L22.83672,9.0849 L22.83672,11.6742214 L24.48072,11.6742214 L24.48072,18.4109357 C24.48072,18.4109357 24.73592,21.3620786 27.48552,21.3620786 C27.48552,21.3620786 29.49792,21.4732571 30.85832,20.58265 L30.26312,18.2439714 Z M64.74912,15.7992214 C64.74912,15.7992214 60.89752,15.4350429 60.89752,17.31015 C60.89752,19.1852571 63.59592,18.8851143 64.71552,17.4099357 L64.74912,15.7992214 Z M68.15192,21.0352214 L65.55552,21.0352214 C65.02112,19.6103286 65.04672,19.3101857 65.04672,19.3101857 C63.41752,21.8103286 57.71552,22.2098643 57.71552,17.7603643 C57.71552,13.3104714 64.69032,13.9355071 64.69032,13.9355071 C64.69032,13.9355071 65.19912,11.4852571 63.13752,11.4852571 C61.07592,11.4852571 59.24312,12.1601857 59.24312,12.1601857 L58.45392,9.8604 C64.18112,7.9354 67.10832,9.26011429 67.54112,11.1356143 C67.97392,13.0103286 67.69392,16.1351143 67.64272,18.0349714 C67.59192,19.9352214 68.15192,21.0352214 68.15192,21.0352214 L68.15192,21.0352214 Z M18.41152,15.7992214 C18.41152,15.7992214 14.55952,15.4350429 14.55952,17.31015 C14.55952,19.1852571 17.25792,18.8851143 18.37792,17.4099357 L18.41152,15.7992214 Z M21.81432,21.0352214 L19.21752,21.0352214 C18.68312,19.6103286 18.70872,19.3101857 18.70872,19.3101857 C17.07952,21.8103286 11.37792,22.2098643 11.37792,17.7603643 C11.37792,13.3104714 18.35232,13.9355071 18.35232,13.9355071 C18.35232,13.9355071 18.86152,11.4852571 16.79952,11.4852571 C14.73792,11.4852571 12.90512,12.1601857 12.90512,12.1601857 L12.11592,9.8604 C17.84312,7.9354 20.77032,9.26011429 21.20312,11.1356143 C21.63592,13.0103286 21.35592,16.1351143 21.30512,18.0349714 C21.25392,19.9352214 21.81432,21.0352214 21.81432,21.0352214 L21.81432,21.0352214 Z M-8e-05,4.51047143 L3.35992,4.51047143 L3.35992,18.0601143 L10.61432,18.0601143 L10.61432,21.0352214 L0.02552,21.0352214 L-8e-05,4.51047143 Z" id="Fill-1" fill="#FEFEFE" mask="url(#mask-2)"></path>
                        </g>
                    </g>
                </g>
            </g>
        </g>
    </g>
</svg>
