<?xml version="1.0" encoding="utf-8"?>
<!-- Generator: Adobe Illustrator 24.2.1, SVG Export Plug-In . SVG Version: 6.00 Build 0)  -->
<svg version="1.1" id="Layer_1" xmlns="http://www.w3.org/2000/svg" xmlns:xlink="http://www.w3.org/1999/xlink" x="0px" y="0px"
	 viewBox="0 0 323.85 158.52" style="enable-background:new 0 0 323.85 158.52;" xml:space="preserve">
<style type="text/css">
	.st0{fill:#2DAAE1;}
	.st1{fill:none;}
	.st2{fill:none;}
	.st3{fill:#FFFFFF;}
	.st4{fill:none;stroke:#FFFFFF;stroke-width:2;stroke-miterlimit:10;}
</style>
<path class="st0" d="M152.72,75.19L152.72,75.19C152.91,75.06,152.9,75.07,152.72,75.19z"/>
<path class="st1" d="M152.87,75.09c-0.04,0.02-0.07,0.05-0.11,0.07c-0.01,0.01-0.02,0.02-0.04,0.02"/>
<path class="st0" d="M152.72,75.19L152.72,75.19C152.91,75.06,152.9,75.07,152.72,75.19z"/>
<path class="st1" d="M152.87,75.09c-0.04,0.02-0.07,0.05-0.11,0.07c-0.01,0.01-0.02,0.02-0.04,0.02"/>
<path class="st0" d="M152.29,75.8L152.29,75.8C152.47,75.68,152.47,75.69,152.29,75.8z"/>
<path class="st1" d="M152.43,75.7c-0.04,0.02-0.07,0.05-0.11,0.07c-0.01,0.01-0.02,0.02-0.04,0.02"/>
<path class="st0" d="M152.29,75.8L152.29,75.8C152.47,75.68,152.47,75.69,152.29,75.8z"/>
<path class="st1" d="M152.43,75.7c-0.04,0.02-0.07,0.05-0.11,0.07c-0.01,0.01-0.02,0.02-0.04,0.02"/>
<path class="st0" d="M152.48,75.65L152.48,75.65C152.67,75.53,152.66,75.54,152.48,75.65z"/>
<path class="st1" d="M152.63,75.56c-0.04,0.02-0.07,0.05-0.11,0.07c-0.01,0.01-0.02,0.02-0.04,0.02"/>
<path class="st0" d="M152.48,75.65L152.48,75.65C152.67,75.53,152.66,75.54,152.48,75.65z"/>
<path class="st1" d="M152.63,75.56c-0.04,0.02-0.07,0.05-0.11,0.07c-0.01,0.01-0.02,0.02-0.04,0.02"/>
<rect class="st1" width="323.85" height="158.52"/>
<path class="st0" d="M152.72,75.46L152.72,75.46C152.91,75.34,152.9,75.35,152.72,75.46z"/>
<path class="st1" d="M152.87,75.37c-0.04,0.02-0.07,0.05-0.11,0.07c-0.01,0.01-0.02,0.02-0.04,0.02"/>
<path class="st0" d="M152.72,75.46L152.72,75.46C152.91,75.34,152.9,75.35,152.72,75.46z"/>
<path class="st1" d="M152.87,75.37c-0.04,0.02-0.07,0.05-0.11,0.07c-0.01,0.01-0.02,0.02-0.04,0.02"/>
<path class="st0" d="M152.72,75.46L152.72,75.46C152.91,75.34,152.9,75.35,152.72,75.46z"/>
<path class="st1" d="M152.87,75.37c-0.04,0.02-0.07,0.05-0.11,0.07c-0.01,0.01-0.02,0.02-0.04,0.02"/>
<path class="st0" d="M152.72,75.46L152.72,75.46C152.91,75.34,152.9,75.35,152.72,75.46z"/>
<path class="st1" d="M152.87,75.37c-0.04,0.02-0.07,0.05-0.11,0.07c-0.01,0.01-0.02,0.02-0.04,0.02"/>
<rect class="st2" width="323.85" height="158.43"/>
<path class="st0" d="M153.53,75.45L153.53,75.45C153.71,75.33,153.71,75.34,153.53,75.45z"/>
<path class="st1" d="M153.68,75.36c-0.04,0.02-0.07,0.05-0.11,0.07c-0.01,0.01-0.02,0.02-0.04,0.02"/>
<path class="st0" d="M153.53,75.45L153.53,75.45C153.71,75.33,153.71,75.34,153.53,75.45z"/>
<path class="st1" d="M153.68,75.36c-0.04,0.02-0.07,0.05-0.11,0.07c-0.01,0.01-0.02,0.02-0.04,0.02"/>
<g>
	<path class="st3" d="M210.04,52.17c0.4,1.05,1.44,1.23,2.14,0.45c3.31-3.67,4.77-6.97,7.03-11.04c0.88-1.58,0.97-1.79,1.93-3.32
		c0.39-0.62,1.49-2.25,2.1-2.7c0.92-0.69,2.3-1.25,3.39-1.32c1.01-0.06,2.13-0.47,2.78,0.69c1,1.75-2.89,6.01-3.84,7.73
		c-4.54,8.12-8.65,15.93-13.75,23.71c-0.85,1.29-1.85,3.62-2.33,5.08c-0.2,0.61-0.49,1.19-0.92,1.69c-1.27,1.49-3.58,1.18-4.33-0.6
		c-0.71-1.7-0.65-2.98,0.37-4.98c3.89-7.63,2.97-7.46,2.21-10.72c-1.08-4.66-1.47-7.43-2.72-12.05c-0.8-2.94-1.07-4.34-1-5.79
		c0.08-1.68,1.97-3.36,2.9-3.19c1.14,0.22,1.62,1.22,1.98,2.87c0.81,3.67,0.34,3.98,1.1,8.69
		C209.19,48.01,209.66,51.17,210.04,52.17z"/>
	<g>
		<path class="st3" d="M240.94,57.02c0.41-0.3,0.83-0.61,1.23-0.92C242,56.22,241.53,56.58,240.94,57.02z M240.94,57.02
			c-0.19,0.14-0.38,0.29-0.58,0.43C240.57,57.3,240.76,57.16,240.94,57.02z"/>
		<path class="st3" d="M290.54,49.01c-0.19-0.66-1.06-0.79-1.78-0.8c-2.38-0.03-4.03,0.62-6,1.95c-1.45,0.99-1.88,1.31-3.31,2.34
			c-0.39,0.27-1.65,1.4-2.09,1.78c-0.48,0.43-1.28,0.14-1.36-0.5c-0.14-1.09,0.28-1.99,0.42-2.7c0.2-1.01,0.88-2.05,0.05-2.63
			c-1.17-0.82-2.83-0.64-4.11,0.63c-1.03,1.02-0.75,1.94-0.97,3.54c-0.34,2.37-0.74,4.78-1.7,6.97c-1.1,2.51-2.08,5.03-4.3,6.73
			c-0.74,0.57-2.86,2.55-3.98,0.51c-0.45-0.83,0.91-4.53,1.13-5.12c1.03-2.75,1.21-2.98,2.15-5.76c0.59-1.76-0.17-3.11-1.95-4.04
			c-1.47-0.76-2.76-0.45-3.93,1c-0.52,0.64-4.66,11.75-7.48,15.45c-0.47,0.62-1.19,1.78-3,1.06c-1.22-0.48-1.15-2.01-1.1-2.62
			c0.15-1.56,0.84-3.63,1.39-5.1c0.86-2.27,1.7-4.41,2.12-6.59c0.46-2.4-1.85-2.8-4.14-1.93c-0.43,0.17-0.84,0.41-1.24,0.67
			c-1.07,0.66-2.1,1.43-3.14,2.22c-0.01,0.01-0.03,0.02-0.04,0.03c-0.59,0.45-1.19,0.91-1.81,1.35c-0.26,0.2-0.53,0.39-0.8,0.57
			c-0.22,0.15-0.43,0.31-0.64,0.44c-0.79,0.53-1.48,0.88-1.71,0.76c-0.1-0.04-0.13-0.15-0.11-0.25c0.08-0.37,0.26-1.26,0.33-1.47
			c0.96-3.02,0.4-5.41-1.64-7.04c-1.97-1.56-4.06-2.07-6.21-0.74c-0.41,0.25-0.79,0.54-1.18,0.83c-5.05,3.83-7.68,9.02-8.9,15.01
			c-0.67,3.22,0.71,5.59,3.08,7.52c1.42,1.15,3.14,1.51,5.01,1.12c2.02-0.43,3.42-1.64,4.5-3.28c1.23-1.89,2.5-4.54,3.25-6.64
			c0.54-1.49,2.88-3.82,4.57-4.66l0.01-0.02c0.82-0.39,1.69-0.82,2.43-0.87c0.53-0.04,0.99,0.31,0.83,0.82
			c-0.67,2.11-1.95,6.31-2.32,8.36c-0.29,1.59,0.24,3.96,1.6,4.9c2.8,1.94,5.21,2.86,8.6,1.05c1.41-0.75,2.46-1.59,3.63-2.65
			c0.89-0.81,1.32-1.61,2.16-2.39c0.23-0.21,0.7-0.61,0.94-0.41c0.23,0.18,0.15,0.75,0.2,1.04c0.68,3.56,2.7,4.09,5.52,1.78
			c0.92-0.75,1.5-1.6,2.29-2.47c0.16-0.18,2.19-2.61,2.5-2.39c0.22,0.16-0.74,2.62-0.81,2.84c-0.28,0.86-0.57,1.45-0.82,2.31
			c-0.21,0.75-0.04,1.6,0.31,1.87c1.09,0.86,3.62,0.77,4.32-0.27c1.18-1.75,1.26-3.57,2-5.58c1.83-4.99,4.17-10.4,9.16-13.46
			c2.59-1.59,4.63-2.67,7.42-3.86C290.43,50,290.76,49.75,290.54,49.01z M228.34,68.41c-0.63,1.12-5.88,2.75-4.44-2.45
			c0.56-2.03,3.15-8.31,6.18-11.32c0,0,2.12-2.82,2.88,1.38C233.31,57.91,231.92,62.06,228.34,68.41z"/>
	</g>
	<path class="st3" d="M172.57,45.29c-3.2,0.08-3.55-4.86-0.84-6.15c2.96-1.41,4.27-0.23,4.3,2.24
		C176.06,43.48,175.52,44.84,172.57,45.29z"/>
	<path class="st3" d="M185.6,41.24c-3.2,0.08-3.55-4.86-0.84-6.15c2.96-1.41,4.27-0.23,4.3,2.24
		C189.09,39.43,188.54,40.79,185.6,41.24z"/>
	<g>
		<path class="st3" d="M193.33,41.63 M193.14,41.48"/>
		<g>
			<path class="st3" d="M193.65,42.47c0,0.38-0.09,0.76-0.17,1.12c-0.9,4.54-2.13,9-3.93,13.26c-0.9,2.13-1.98,4.19-3.29,6.1
				c-0.67,0.97-1.46,1.8-2.23,2.66c-0.76,0.88-1.69,1.61-2.65,2.26c-1.94,1.26-4.33,2.06-6.68,1.66c-2.35-0.36-4.42-1.71-6.06-3.35
				c-1.64-1.66-3-3.57-4.14-5.58c-0.57-1.01-1.12-2.03-1.61-3.09l-0.72-1.57c-0.25-0.5-0.48-1.14-0.47-1.75
				c-0.01-0.62,0.11-1.23,0.42-1.81c0.34-0.57,0.86-0.91,1.29-1.26c0.42-0.36,0.92-0.78,1.52-0.98c0.59-0.22,1.28-0.21,1.87,0.01
				c0.59,0.22,1.13,0.61,1.49,1.14c0.36,0.54,0.52,1.16,0.57,1.77c0.02,0.32,0,0.62-0.05,0.93c-0.04,0.31-0.18,0.62-0.17,0.8
				c0.01,0.5,0.16,1.07,0.3,1.61c0.6,2.21,1.48,4.33,3.15,5.88c0.79,0.82,1.66,1.53,2.7,1.89c1.03,0.37,2.16,0.4,3.24,0.16
				c2.17-0.51,4.09-1.87,5.58-3.58c1.52-1.7,2.8-3.62,3.84-5.66c1.08-2.03,1.83-4.2,2.55-6.4c0.71-2.2,1.33-4.41,1.92-6.65
				c0.02-0.04,0.02-0.05,0.03-0.07l0.02-0.07c0.02-0.04,0.03-0.07,0.07-0.12c0,0-0.01,0,0-0.01l0.01-0.02v-0.01
				c0.17-0.23,0.41-0.48,0.74-0.5c0.34,0,0.57,0.25,0.72,0.51c0.06,0.1,0.07,0.18,0.11,0.28C193.64,42.21,193.65,42.34,193.65,42.47
				z"/>
		</g>
	</g>
	<g>
		<path class="st3" d="M162.18,77.45h20.33v5.24h-12.73v3.9h11.81v5.01h-11.81v4.84h13.1V102h-20.7V77.45z"/>
		<path class="st3" d="M205.19,102h-6.36v-2.88c-0.95,1.18-1.91,2.03-2.87,2.53c-0.97,0.5-2.15,0.75-3.56,0.75
			c-1.88,0-3.35-0.56-4.41-1.68c-1.07-1.12-1.6-2.85-1.6-5.18V84.22h6.85V94c0,1.12,0.21,1.91,0.62,2.38
			c0.41,0.47,0.99,0.7,1.74,0.7c0.81,0,1.48-0.31,2-0.94c0.52-0.63,0.78-1.75,0.78-3.37v-8.56h6.82V102z"/>
		<path class="st3" d="M209.32,84.22h6.38v2.91c0.61-1.26,1.25-2.13,1.9-2.6c0.65-0.47,1.46-0.71,2.42-0.71c1,0,2.1,0.31,3.3,0.94
			l-2.11,4.86c-0.8-0.33-1.44-0.5-1.91-0.5c-0.89,0-1.59,0.37-2.08,1.11c-0.7,1.04-1.05,2.98-1.05,5.83V102h-6.85V84.22z"/>
		<path class="st3" d="M223.54,93.16c0-2.71,0.91-4.95,2.75-6.71c1.83-1.76,4.3-2.64,7.42-2.64c3.56,0,6.25,1.03,8.07,3.1
			c1.46,1.66,2.19,3.71,2.19,6.15c0,2.74-0.91,4.98-2.72,6.72c-1.81,1.75-4.32,2.62-7.53,2.62c-2.86,0-5.17-0.73-6.93-2.18
			C224.62,98.43,223.54,96.07,223.54,93.16z M230.37,93.14c0,1.59,0.32,2.76,0.96,3.52c0.64,0.76,1.45,1.14,2.42,1.14
			c0.98,0,1.79-0.37,2.42-1.12c0.63-0.75,0.95-1.95,0.95-3.6c0-1.54-0.32-2.69-0.95-3.44c-0.64-0.75-1.42-1.13-2.36-1.13
			c-0.99,0-1.81,0.38-2.46,1.15C230.7,90.42,230.37,91.58,230.37,93.14z"/>
		<path class="st3" d="M247.22,108.77V84.22h6.38v2.63c0.88-1.11,1.69-1.85,2.43-2.24c0.99-0.52,2.09-0.79,3.3-0.79
			c2.38,0,4.22,0.91,5.52,2.73c1.3,1.82,1.95,4.07,1.95,6.75c0,2.96-0.71,5.22-2.13,6.77c-1.42,1.56-3.21,2.34-5.38,2.34
			c-1.05,0-2.01-0.18-2.87-0.54c-0.87-0.36-1.64-0.89-2.32-1.59v8.49H247.22z M254.05,93.16c0,1.41,0.3,2.45,0.89,3.13
			c0.59,0.68,1.34,1.02,2.24,1.02c0.79,0,1.46-0.33,1.99-0.98c0.54-0.65,0.8-1.76,0.8-3.32c0-1.44-0.28-2.5-0.84-3.17
			c-0.56-0.68-1.24-1.01-2.04-1.01c-0.87,0-1.6,0.34-2.18,1.02C254.34,90.53,254.05,91.63,254.05,93.16z"/>
		<path class="st3" d="M289.74,94.8h-13.67c0.12,1.09,0.42,1.91,0.89,2.45c0.66,0.77,1.52,1.16,2.58,1.16c0.67,0,1.31-0.17,1.91-0.5
			c0.37-0.21,0.76-0.59,1.19-1.12l6.72,0.62c-1.03,1.79-2.27,3.07-3.72,3.84c-1.45,0.78-3.53,1.16-6.25,1.16
			c-2.36,0-4.21-0.33-5.56-1c-1.35-0.66-2.47-1.72-3.36-3.17c-0.89-1.45-1.33-3.15-1.33-5.1c0-2.78,0.89-5.03,2.67-6.75
			c1.78-1.72,4.24-2.58,7.38-2.58c2.55,0,4.56,0.39,6.03,1.16c1.47,0.77,2.6,1.89,3.37,3.35c0.77,1.46,1.16,3.37,1.16,5.71V94.8z
			 M282.8,91.54c-0.13-1.32-0.49-2.26-1.06-2.83c-0.58-0.57-1.33-0.85-2.27-0.85c-1.08,0-1.95,0.43-2.6,1.29
			c-0.41,0.54-0.68,1.33-0.79,2.39H282.8z"/>
	</g>
</g>
<g>
	<g>
		<g>
			<rect x="34.59" y="34.05" class="st2" width="102.21" height="68.14"/>
			<path class="st3" d="M137.79,103.19H33.59V33.05h104.21V103.19z M35.59,101.19h100.21V35.05H35.59V101.19z"/>
		</g>
	</g>
	<g>
		<polygon class="st3" points="83.51,48.89 85.67,47.32 87.83,48.89 87,46.35 89.2,44.77 86.5,44.77 85.67,42.2 84.84,44.78
			82.14,44.77 84.33,46.35 		"/>
		<polygon class="st3" points="72.35,51.89 74.51,50.32 76.66,51.89 75.84,49.35 78.03,47.77 75.33,47.77 74.51,45.19 73.68,47.78
			70.98,47.77 73.17,49.35 		"/>
		<polygon class="st3" points="66.34,53.38 65.52,55.96 62.82,55.96 65.01,57.53 64.19,60.08 66.34,58.5 68.5,60.08 67.68,57.53
			69.87,55.96 67.17,55.96 		"/>
		<polygon class="st3" points="63.35,69.65 65.5,71.22 64.68,68.68 66.87,67.1 64.17,67.1 63.35,64.52 62.52,67.11 59.82,67.1
			62.01,68.68 61.19,71.22 		"/>
		<polygon class="st3" points="67.17,78.28 66.34,75.71 65.52,78.29 62.82,78.28 65.01,79.86 64.19,82.4 66.34,80.83 68.5,82.4
			67.68,79.86 69.87,78.28 		"/>
		<polygon class="st3" points="75.35,86.47 74.52,83.89 73.7,86.47 71,86.47 73.19,88.04 72.37,90.59 74.53,89.01 76.68,90.59
			75.86,88.04 78.05,86.47 		"/>
		<polygon class="st3" points="86.5,89.43 85.67,86.85 84.85,89.43 82.15,89.43 84.33,91 83.52,93.55 85.67,91.98 87.83,93.55
			87.01,91 89.2,89.43 		"/>
		<polygon class="st3" points="97.64,86.47 96.82,83.89 95.99,86.47 93.29,86.47 95.48,88.04 94.66,90.59 96.82,89.01 98.98,90.59
			98.15,88.04 100.34,86.47 		"/>
		<polygon class="st3" points="105.83,78.28 105,75.71 104.17,78.29 101.48,78.28 103.67,79.86 102.84,82.4 105,80.83 107.16,82.4
			106.33,79.86 108.53,78.28 		"/>
		<polygon class="st3" points="111.49,67.07 108.79,67.07 107.96,64.49 107.14,67.08 104.44,67.07 106.63,68.65 105.81,71.19
			107.96,69.62 110.12,71.19 109.3,68.65 		"/>
		<polygon class="st3" points="102.84,60.04 105,58.47 107.16,60.04 106.33,57.5 108.53,55.93 105.83,55.93 105,53.35 104.17,55.93
			101.48,55.93 103.67,57.5 		"/>
		<polygon class="st3" points="96.85,45.2 96.02,47.78 93.32,47.77 95.51,49.35 94.69,51.89 96.85,50.32 99.01,51.89 98.19,49.35
			100.38,47.77 97.67,47.77 		"/>
	</g>
</g>
<g>
	<path class="st3" d="M36.47,124.54v-6.84h-2.44v-1.39h6.54v1.39h-2.44v6.84H36.47z"/>
	<path class="st3" d="M43.31,116.31v3.03c0.51-0.6,1.12-0.89,1.83-0.89c0.36,0,0.69,0.07,0.98,0.2s0.51,0.31,0.66,0.52
		c0.15,0.21,0.25,0.44,0.3,0.7c0.05,0.25,0.08,0.65,0.08,1.19v3.5h-1.58v-3.15c0-0.62-0.03-1.02-0.09-1.19
		c-0.06-0.17-0.17-0.3-0.32-0.4c-0.15-0.1-0.34-0.15-0.57-0.15c-0.26,0-0.5,0.06-0.7,0.19c-0.21,0.13-0.36,0.32-0.45,0.58
		c-0.1,0.26-0.14,0.63-0.14,1.14v2.99h-1.58v-8.23H43.31z"/>
	<path class="st3" d="M48.86,117.77v-1.46h1.58v1.46H48.86z M48.86,124.54v-5.96h1.58v5.96H48.86z"/>
	<path class="st3" d="M51.6,122.84l1.58-0.24c0.07,0.31,0.2,0.54,0.41,0.7s0.49,0.24,0.87,0.24c0.41,0,0.71-0.08,0.92-0.22
		c0.14-0.11,0.21-0.25,0.21-0.42c0-0.12-0.04-0.22-0.11-0.3c-0.08-0.08-0.25-0.14-0.53-0.21c-1.27-0.28-2.08-0.54-2.42-0.77
		c-0.47-0.32-0.71-0.77-0.71-1.34c0-0.52,0.2-0.95,0.61-1.3s1.04-0.53,1.9-0.53c0.82,0,1.42,0.13,1.82,0.4
		c0.4,0.27,0.67,0.66,0.82,1.18l-1.49,0.28c-0.06-0.23-0.18-0.41-0.36-0.53c-0.18-0.12-0.43-0.19-0.76-0.19
		c-0.42,0-0.71,0.06-0.89,0.17c-0.12,0.08-0.18,0.19-0.18,0.32c0,0.11,0.05,0.21,0.16,0.29c0.14,0.11,0.63,0.25,1.47,0.44
		c0.84,0.19,1.43,0.43,1.76,0.7c0.33,0.28,0.49,0.67,0.49,1.17c0,0.55-0.23,1.02-0.69,1.41c-0.46,0.39-1.13,0.59-2.03,0.59
		c-0.81,0-1.46-0.17-1.93-0.49S51.75,123.4,51.6,122.84z"/>
	<path class="st3" d="M63.07,124.54l-1.89-5.96h1.53l1.12,3.91l1.03-3.91h1.52l0.99,3.91l1.14-3.91h1.56l-1.92,5.96h-1.52
		l-1.03-3.83l-1.01,3.83H63.07z"/>
	<path class="st3" d="M74.46,122.64l1.57,0.26c-0.2,0.58-0.52,1.02-0.96,1.32c-0.44,0.3-0.98,0.45-1.64,0.45
		c-1.04,0-1.8-0.34-2.3-1.02c-0.39-0.54-0.59-1.23-0.59-2.05c0-0.99,0.26-1.76,0.77-2.32s1.17-0.84,1.96-0.84
		c0.89,0,1.59,0.29,2.1,0.88c0.51,0.59,0.76,1.48,0.74,2.69h-3.95c0.01,0.47,0.14,0.83,0.38,1.09c0.24,0.26,0.55,0.39,0.91,0.39
		c0.25,0,0.46-0.07,0.62-0.2C74.25,123.16,74.37,122.94,74.46,122.64z M74.55,121.05c-0.01-0.46-0.13-0.8-0.35-1.04
		c-0.22-0.24-0.5-0.36-0.82-0.36c-0.34,0-0.63,0.12-0.85,0.38s-0.33,0.59-0.33,1.02H74.55z"/>
	<path class="st3" d="M77.44,124.54v-8.23h1.58v2.96c0.49-0.55,1.06-0.83,1.73-0.83c0.73,0,1.33,0.26,1.8,0.79
		c0.48,0.53,0.71,1.28,0.71,2.27c0,1.02-0.24,1.8-0.73,2.35c-0.48,0.55-1.07,0.83-1.77,0.83c-0.34,0-0.68-0.08-1.01-0.26
		c-0.33-0.17-0.62-0.42-0.86-0.75v0.88H77.44z M79,121.43c0,0.62,0.1,1.08,0.29,1.37c0.27,0.42,0.64,0.63,1.09,0.63
		c0.35,0,0.64-0.15,0.89-0.45c0.25-0.3,0.37-0.77,0.37-1.41c0-0.68-0.12-1.17-0.37-1.47c-0.25-0.3-0.56-0.45-0.95-0.45
		c-0.38,0-0.69,0.15-0.94,0.44S79,120.83,79,121.43z"/>
	<path class="st3" d="M84.59,118.58h1.47v0.88c0.19-0.3,0.45-0.54,0.77-0.73c0.33-0.19,0.69-0.28,1.08-0.28
		c0.69,0,1.28,0.27,1.76,0.81c0.48,0.54,0.72,1.3,0.72,2.27c0,1-0.24,1.77-0.73,2.32c-0.49,0.55-1.08,0.83-1.77,0.83
		c-0.33,0-0.63-0.07-0.9-0.2s-0.55-0.36-0.84-0.67v3h-1.58V118.58z M86.15,121.46c0,0.67,0.13,1.17,0.4,1.49s0.59,0.48,0.97,0.48
		c0.37,0,0.67-0.15,0.92-0.44s0.37-0.78,0.37-1.45c0-0.62-0.13-1.09-0.38-1.39c-0.25-0.3-0.56-0.46-0.93-0.46
		c-0.39,0-0.71,0.15-0.96,0.45C86.28,120.43,86.15,120.87,86.15,121.46z"/>
	<path class="st3" d="M92.94,120.4l-1.43-0.26c0.16-0.58,0.44-1,0.83-1.28c0.39-0.28,0.98-0.42,1.75-0.42c0.7,0,1.23,0.08,1.57,0.25
		c0.34,0.17,0.59,0.38,0.73,0.63c0.14,0.26,0.21,0.73,0.21,1.41l-0.02,1.84c0,0.52,0.03,0.91,0.08,1.16s0.15,0.52,0.28,0.8h-1.56
		c-0.04-0.1-0.09-0.26-0.15-0.47c-0.03-0.09-0.04-0.16-0.06-0.19c-0.27,0.26-0.56,0.46-0.86,0.59c-0.31,0.13-0.63,0.2-0.98,0.2
		c-0.61,0-1.1-0.17-1.45-0.5s-0.53-0.75-0.53-1.26c0-0.34,0.08-0.64,0.24-0.9c0.16-0.26,0.39-0.47,0.68-0.61
		c0.29-0.14,0.71-0.26,1.25-0.37c0.74-0.14,1.25-0.27,1.53-0.39v-0.16c0-0.3-0.08-0.52-0.22-0.65c-0.15-0.13-0.43-0.19-0.85-0.19
		c-0.28,0-0.5,0.05-0.66,0.17S93.04,120.12,92.94,120.4z M95.05,121.68c-0.2,0.07-0.52,0.15-0.96,0.24
		c-0.44,0.09-0.72,0.18-0.86,0.27c-0.21,0.15-0.31,0.33-0.31,0.56c0,0.22,0.08,0.41,0.25,0.57c0.17,0.16,0.38,0.24,0.63,0.24
		c0.29,0,0.56-0.09,0.81-0.28c0.19-0.14,0.32-0.32,0.38-0.52c0.04-0.13,0.06-0.39,0.06-0.77V121.68z"/>
	<path class="st3" d="M98.12,124.93l1.8,0.22c0.03,0.21,0.1,0.35,0.21,0.43c0.15,0.11,0.39,0.17,0.71,0.17
		c0.41,0,0.72-0.06,0.93-0.19c0.14-0.08,0.24-0.21,0.31-0.4c0.05-0.13,0.07-0.37,0.07-0.72v-0.87c-0.47,0.64-1.07,0.97-1.79,0.97
		c-0.8,0-1.44-0.34-1.9-1.02c-0.37-0.54-0.55-1.2-0.55-2c0-1,0.24-1.76,0.72-2.29c0.48-0.53,1.08-0.79,1.79-0.79
		c0.74,0,1.35,0.32,1.83,0.97v-0.84h1.48v5.35c0,0.7-0.06,1.23-0.17,1.58s-0.28,0.62-0.49,0.82c-0.21,0.2-0.49,0.35-0.84,0.47
		c-0.35,0.11-0.79,0.17-1.33,0.17c-1.01,0-1.73-0.17-2.15-0.52c-0.42-0.35-0.63-0.79-0.63-1.32
		C98.11,125.07,98.11,125.01,98.12,124.93z M99.53,121.43c0,0.63,0.12,1.1,0.37,1.39s0.55,0.44,0.91,0.44
		c0.39,0,0.71-0.15,0.98-0.45c0.27-0.3,0.4-0.75,0.4-1.34c0-0.62-0.13-1.08-0.38-1.38c-0.25-0.3-0.58-0.45-0.97-0.45
		c-0.38,0-0.69,0.15-0.93,0.44S99.53,120.83,99.53,121.43z"/>
	<path class="st3" d="M108.84,122.64l1.57,0.26c-0.2,0.58-0.52,1.02-0.96,1.32c-0.44,0.3-0.98,0.45-1.64,0.45
		c-1.04,0-1.8-0.34-2.3-1.02c-0.39-0.54-0.59-1.23-0.59-2.05c0-0.99,0.26-1.76,0.77-2.32s1.17-0.84,1.96-0.84
		c0.89,0,1.59,0.29,2.1,0.88c0.51,0.59,0.76,1.48,0.74,2.69h-3.95c0.01,0.47,0.14,0.83,0.38,1.09c0.24,0.26,0.55,0.39,0.91,0.39
		c0.25,0,0.46-0.07,0.62-0.2C108.63,123.16,108.76,122.94,108.84,122.64z M108.93,121.05c-0.01-0.46-0.13-0.8-0.35-1.04
		c-0.22-0.24-0.5-0.36-0.82-0.36c-0.34,0-0.63,0.12-0.85,0.38s-0.33,0.59-0.33,1.02H108.93z"/>
	<path class="st3" d="M115.19,117.77v-1.46h1.58v1.46H115.19z M115.19,124.54v-5.96h1.58v5.96H115.19z"/>
	<path class="st3" d="M117.93,122.84l1.58-0.24c0.07,0.31,0.2,0.54,0.41,0.7s0.49,0.24,0.87,0.24c0.41,0,0.71-0.08,0.92-0.22
		c0.14-0.11,0.21-0.25,0.21-0.42c0-0.12-0.04-0.22-0.11-0.3c-0.08-0.08-0.25-0.14-0.53-0.21c-1.27-0.28-2.08-0.54-2.42-0.77
		c-0.47-0.32-0.71-0.77-0.71-1.34c0-0.52,0.2-0.95,0.61-1.3s1.04-0.53,1.9-0.53c0.82,0,1.42,0.13,1.82,0.4
		c0.4,0.27,0.67,0.66,0.82,1.18l-1.49,0.28c-0.06-0.23-0.18-0.41-0.36-0.53c-0.18-0.12-0.43-0.19-0.76-0.19
		c-0.42,0-0.71,0.06-0.89,0.17c-0.12,0.08-0.18,0.19-0.18,0.32c0,0.11,0.05,0.21,0.16,0.29c0.14,0.11,0.63,0.25,1.47,0.44
		c0.84,0.19,1.43,0.43,1.76,0.7c0.33,0.28,0.49,0.67,0.49,1.17c0,0.55-0.23,1.02-0.69,1.41c-0.46,0.39-1.13,0.59-2.03,0.59
		c-0.81,0-1.46-0.17-1.93-0.49S118.08,123.4,117.93,122.84z"/>
	<path class="st3" d="M128.24,118.58h1.47v0.88c0.19-0.3,0.45-0.54,0.77-0.73c0.33-0.19,0.69-0.28,1.08-0.28
		c0.69,0,1.28,0.27,1.76,0.81c0.48,0.54,0.72,1.3,0.72,2.27c0,1-0.24,1.77-0.73,2.32c-0.49,0.55-1.08,0.83-1.77,0.83
		c-0.33,0-0.63-0.07-0.9-0.2s-0.55-0.36-0.84-0.67v3h-1.58V118.58z M129.8,121.46c0,0.67,0.13,1.17,0.4,1.49s0.59,0.48,0.97,0.48
		c0.37,0,0.67-0.15,0.92-0.44s0.37-0.78,0.37-1.45c0-0.62-0.13-1.09-0.38-1.39c-0.25-0.3-0.56-0.46-0.93-0.46
		c-0.39,0-0.71,0.15-0.96,0.45C129.93,120.43,129.8,120.87,129.8,121.46z"/>
	<path class="st3" d="M136.59,120.4l-1.43-0.26c0.16-0.58,0.44-1,0.83-1.28c0.39-0.28,0.98-0.42,1.75-0.42
		c0.7,0,1.23,0.08,1.57,0.25c0.34,0.17,0.59,0.38,0.73,0.63c0.14,0.26,0.21,0.73,0.21,1.41l-0.02,1.84c0,0.52,0.03,0.91,0.08,1.16
		s0.15,0.52,0.28,0.8h-1.56c-0.04-0.1-0.09-0.26-0.15-0.47c-0.03-0.09-0.04-0.16-0.06-0.19c-0.27,0.26-0.56,0.46-0.86,0.59
		c-0.31,0.13-0.63,0.2-0.98,0.2c-0.61,0-1.1-0.17-1.45-0.5s-0.53-0.75-0.53-1.26c0-0.34,0.08-0.64,0.24-0.9
		c0.16-0.26,0.39-0.47,0.68-0.61c0.29-0.14,0.71-0.26,1.25-0.37c0.74-0.14,1.25-0.27,1.53-0.39v-0.16c0-0.3-0.08-0.52-0.22-0.65
		c-0.15-0.13-0.43-0.19-0.85-0.19c-0.28,0-0.5,0.05-0.66,0.17S136.69,120.12,136.59,120.4z M138.7,121.68
		c-0.2,0.07-0.52,0.15-0.96,0.24c-0.44,0.09-0.72,0.18-0.86,0.27c-0.21,0.15-0.31,0.33-0.31,0.56c0,0.22,0.08,0.41,0.25,0.57
		c0.17,0.16,0.38,0.24,0.63,0.24c0.29,0,0.56-0.09,0.81-0.28c0.19-0.14,0.32-0.32,0.38-0.52c0.04-0.13,0.06-0.39,0.06-0.77V121.68z"
		/>
	<path class="st3" d="M143.42,124.54h-1.58v-5.96h1.47v0.85c0.25-0.4,0.48-0.67,0.68-0.79s0.43-0.19,0.68-0.19
		c0.36,0,0.71,0.1,1.04,0.3l-0.49,1.38c-0.27-0.17-0.51-0.26-0.74-0.26c-0.22,0-0.41,0.06-0.56,0.18c-0.15,0.12-0.27,0.34-0.36,0.66
		s-0.13,0.98-0.13,2V124.54z"/>
	<path class="st3" d="M149.23,118.58v1.26h-1.08v2.4c0,0.49,0.01,0.77,0.03,0.85c0.02,0.08,0.07,0.15,0.14,0.2
		c0.07,0.05,0.16,0.08,0.27,0.08c0.15,0,0.36-0.05,0.63-0.15l0.13,1.22c-0.37,0.16-0.78,0.24-1.25,0.24c-0.28,0-0.54-0.05-0.77-0.14
		c-0.23-0.09-0.4-0.22-0.5-0.37s-0.18-0.36-0.22-0.62c-0.03-0.18-0.05-0.55-0.05-1.11v-2.6h-0.72v-1.26h0.72v-1.19l1.58-0.92v2.11
		H149.23z"/>
	<path class="st3" d="M153.36,121.47c0-0.52,0.13-1.03,0.39-1.52c0.26-0.49,0.62-0.86,1.1-1.12c0.47-0.26,1-0.39,1.59-0.39
		c0.9,0,1.64,0.29,2.22,0.88s0.87,1.33,0.87,2.22c0,0.9-0.29,1.65-0.87,2.24c-0.58,0.59-1.31,0.89-2.2,0.89
		c-0.55,0-1.07-0.12-1.56-0.37c-0.5-0.25-0.87-0.61-1.13-1.09C153.49,122.74,153.36,122.16,153.36,121.47z M154.97,121.56
		c0,0.59,0.14,1.04,0.42,1.36c0.28,0.31,0.63,0.47,1.04,0.47c0.41,0,0.76-0.16,1.04-0.47c0.28-0.31,0.42-0.77,0.42-1.37
		c0-0.58-0.14-1.03-0.42-1.35c-0.28-0.31-0.62-0.47-1.04-0.47c-0.41,0-0.76,0.16-1.04,0.47
		C155.11,120.51,154.97,120.97,154.97,121.56z"/>
	<path class="st3" d="M160.16,118.58h0.88v-0.45c0-0.5,0.05-0.88,0.16-1.12c0.11-0.25,0.3-0.45,0.59-0.6
		c0.29-0.16,0.65-0.23,1.09-0.23c0.45,0,0.89,0.07,1.32,0.2l-0.21,1.1c-0.25-0.06-0.49-0.09-0.72-0.09c-0.23,0-0.39,0.05-0.49,0.16
		c-0.1,0.11-0.15,0.31-0.15,0.61v0.42h1.18v1.24h-1.18v4.72h-1.58v-4.72h-0.88V118.58z"/>
	<path class="st3" d="M169.26,120.4l-1.43-0.26c0.16-0.58,0.44-1,0.83-1.28c0.39-0.28,0.98-0.42,1.75-0.42
		c0.7,0,1.23,0.08,1.57,0.25c0.34,0.17,0.59,0.38,0.73,0.63c0.14,0.26,0.21,0.73,0.21,1.41l-0.02,1.84c0,0.52,0.03,0.91,0.08,1.16
		s0.15,0.52,0.28,0.8h-1.56c-0.04-0.1-0.09-0.26-0.15-0.47c-0.03-0.09-0.04-0.16-0.06-0.19c-0.27,0.26-0.56,0.46-0.86,0.59
		c-0.31,0.13-0.63,0.2-0.98,0.2c-0.61,0-1.1-0.17-1.45-0.5s-0.53-0.75-0.53-1.26c0-0.34,0.08-0.64,0.24-0.9
		c0.16-0.26,0.39-0.47,0.68-0.61c0.29-0.14,0.71-0.26,1.25-0.37c0.74-0.14,1.25-0.27,1.53-0.39v-0.16c0-0.3-0.08-0.52-0.22-0.65
		c-0.15-0.13-0.43-0.19-0.85-0.19c-0.28,0-0.5,0.05-0.66,0.17S169.36,120.12,169.26,120.4z M171.37,121.68
		c-0.2,0.07-0.52,0.15-0.96,0.24c-0.44,0.09-0.72,0.18-0.86,0.27c-0.21,0.15-0.31,0.33-0.31,0.56c0,0.22,0.08,0.41,0.25,0.57
		c0.17,0.16,0.38,0.24,0.63,0.24c0.29,0,0.56-0.09,0.81-0.28c0.19-0.14,0.32-0.32,0.38-0.52c0.04-0.13,0.06-0.39,0.06-0.77V121.68z"
		/>
	<path class="st3" d="M180.01,124.54h-1.58v-3.04c0-0.64-0.03-1.06-0.1-1.25c-0.07-0.19-0.18-0.34-0.33-0.44
		c-0.15-0.11-0.33-0.16-0.55-0.16c-0.27,0-0.52,0.07-0.74,0.22c-0.22,0.15-0.37,0.35-0.45,0.59c-0.08,0.25-0.12,0.7-0.12,1.37v2.7
		h-1.58v-5.96h1.46v0.88c0.52-0.67,1.18-1.01,1.97-1.01c0.35,0,0.67,0.06,0.95,0.19c0.29,0.13,0.51,0.29,0.65,0.48
		c0.15,0.19,0.25,0.42,0.31,0.66c0.06,0.25,0.09,0.6,0.09,1.06V124.54z"/>
	<path class="st3" d="M185.02,124.54v-8.23h6.1v1.39h-4.44v1.83h4.13v1.39h-4.13v2.24h4.6v1.39H185.02z"/>
	<path class="st3" d="M192.78,116.31h1.66v4.46c0,0.71,0.02,1.17,0.06,1.38c0.07,0.34,0.24,0.61,0.51,0.81s0.63,0.31,1.1,0.31
		c0.47,0,0.83-0.1,1.07-0.29c0.24-0.19,0.38-0.43,0.43-0.71c0.05-0.28,0.07-0.75,0.07-1.4v-4.55h1.66v4.32
		c0,0.99-0.04,1.69-0.13,2.09s-0.26,0.75-0.5,1.03c-0.24,0.28-0.56,0.5-0.97,0.67c-0.4,0.17-0.93,0.25-1.58,0.25
		c-0.79,0-1.38-0.09-1.79-0.27s-0.73-0.42-0.96-0.71c-0.24-0.29-0.39-0.59-0.47-0.91c-0.11-0.47-0.16-1.17-0.16-2.09V116.31z"/>
	<path class="st3" d="M208.39,126.81v-3c-0.21,0.27-0.46,0.48-0.77,0.63s-0.64,0.23-0.99,0.23c-0.68,0-1.24-0.25-1.67-0.76
		c-0.52-0.6-0.78-1.4-0.78-2.42c0-0.96,0.24-1.71,0.73-2.24c0.48-0.54,1.09-0.81,1.8-0.81c0.4,0,0.74,0.08,1.03,0.25
		c0.29,0.17,0.55,0.42,0.77,0.76v-0.88h1.46v8.23H208.39z M208.44,121.49c0-0.61-0.12-1.06-0.37-1.36c-0.25-0.3-0.56-0.45-0.93-0.45
		c-0.38,0-0.7,0.15-0.96,0.46c-0.26,0.3-0.38,0.78-0.38,1.44c0,0.66,0.12,1.13,0.37,1.42s0.55,0.44,0.92,0.44s0.68-0.16,0.96-0.49
		C208.3,122.61,208.44,122.13,208.44,121.49z"/>
	<path class="st3" d="M215.54,124.54v-0.89c-0.22,0.32-0.5,0.57-0.86,0.75c-0.35,0.18-0.73,0.28-1.12,0.28
		c-0.4,0-0.76-0.09-1.08-0.26c-0.32-0.18-0.55-0.42-0.69-0.74c-0.14-0.32-0.21-0.76-0.21-1.32v-3.77h1.58v2.74
		c0,0.84,0.03,1.35,0.09,1.54c0.06,0.19,0.16,0.34,0.32,0.45c0.15,0.11,0.35,0.17,0.58,0.17c0.27,0,0.51-0.07,0.72-0.22
		c0.21-0.15,0.36-0.33,0.44-0.55c0.08-0.22,0.12-0.75,0.12-1.61v-2.52h1.58v5.96H215.54z"/>
	<path class="st3" d="M219.92,120.4l-1.43-0.26c0.16-0.58,0.44-1,0.83-1.28c0.39-0.28,0.98-0.42,1.75-0.42
		c0.7,0,1.23,0.08,1.57,0.25c0.34,0.17,0.59,0.38,0.73,0.63c0.14,0.26,0.21,0.73,0.21,1.41l-0.02,1.84c0,0.52,0.03,0.91,0.08,1.16
		s0.15,0.52,0.28,0.8h-1.56c-0.04-0.1-0.09-0.26-0.15-0.47c-0.03-0.09-0.04-0.16-0.06-0.19c-0.27,0.26-0.56,0.46-0.86,0.59
		c-0.31,0.13-0.63,0.2-0.98,0.2c-0.61,0-1.1-0.17-1.45-0.5s-0.53-0.75-0.53-1.26c0-0.34,0.08-0.64,0.24-0.9
		c0.16-0.26,0.39-0.47,0.68-0.61c0.29-0.14,0.71-0.26,1.25-0.37c0.74-0.14,1.25-0.27,1.53-0.39v-0.16c0-0.3-0.08-0.52-0.22-0.65
		c-0.15-0.13-0.43-0.19-0.85-0.19c-0.28,0-0.5,0.05-0.66,0.17S220.02,120.12,219.92,120.4z M222.04,121.68
		c-0.2,0.07-0.52,0.15-0.96,0.24c-0.44,0.09-0.72,0.18-0.86,0.27c-0.21,0.15-0.31,0.33-0.31,0.56c0,0.22,0.08,0.41,0.25,0.57
		c0.17,0.16,0.38,0.24,0.63,0.24c0.29,0,0.56-0.09,0.81-0.28c0.19-0.14,0.32-0.32,0.38-0.52c0.04-0.13,0.06-0.39,0.06-0.77V121.68z"
		/>
	<path class="st3" d="M225.24,124.54v-8.23h1.58v8.23H225.24z"/>
	<path class="st3" d="M228.54,117.77v-1.46h1.58v1.46H228.54z M228.54,124.54v-5.96h1.58v5.96H228.54z"/>
	<path class="st3" d="M234.58,118.58v1.26h-1.08v2.4c0,0.49,0.01,0.77,0.03,0.85c0.02,0.08,0.07,0.15,0.14,0.2
		c0.07,0.05,0.16,0.08,0.27,0.08c0.15,0,0.36-0.05,0.63-0.15l0.13,1.22c-0.37,0.16-0.78,0.24-1.25,0.24c-0.28,0-0.54-0.05-0.77-0.14
		c-0.23-0.09-0.4-0.22-0.5-0.37s-0.18-0.36-0.22-0.62c-0.03-0.18-0.05-0.55-0.05-1.11v-2.6h-0.72v-1.26h0.72v-1.19l1.58-0.92v2.11
		H234.58z"/>
	<path class="st3" d="M235.03,118.58h1.68l1.43,4.23l1.39-4.23h1.63l-2.11,5.74l-0.38,1.04c-0.14,0.35-0.27,0.61-0.4,0.8
		c-0.13,0.18-0.27,0.33-0.43,0.45s-0.36,0.2-0.6,0.27c-0.24,0.06-0.51,0.1-0.81,0.1c-0.3,0-0.6-0.03-0.89-0.1l-0.14-1.23
		c0.25,0.05,0.47,0.07,0.67,0.07c0.37,0,0.64-0.11,0.81-0.32c0.18-0.22,0.31-0.49,0.4-0.82L235.03,118.58z"/>
	<path class="st3" d="M251,124.54h-1.58v-3.04c0-0.64-0.03-1.06-0.1-1.25c-0.07-0.19-0.18-0.34-0.33-0.44
		c-0.15-0.11-0.33-0.16-0.55-0.16c-0.27,0-0.52,0.07-0.74,0.22c-0.22,0.15-0.37,0.35-0.45,0.59c-0.08,0.25-0.12,0.7-0.12,1.37v2.7
		h-1.58v-5.96h1.46v0.88c0.52-0.67,1.18-1.01,1.97-1.01c0.35,0,0.67,0.06,0.95,0.19c0.29,0.13,0.51,0.29,0.65,0.48
		c0.15,0.19,0.25,0.42,0.31,0.66c0.06,0.25,0.09,0.6,0.09,1.06V124.54z"/>
	<path class="st3" d="M256.15,122.64l1.57,0.26c-0.2,0.58-0.52,1.02-0.96,1.32c-0.44,0.3-0.98,0.45-1.64,0.45
		c-1.04,0-1.8-0.34-2.3-1.02c-0.39-0.54-0.59-1.23-0.59-2.05c0-0.99,0.26-1.76,0.77-2.32s1.17-0.84,1.96-0.84
		c0.89,0,1.59,0.29,2.1,0.88c0.51,0.59,0.76,1.48,0.74,2.69h-3.95c0.01,0.47,0.14,0.83,0.38,1.09c0.24,0.26,0.55,0.39,0.91,0.39
		c0.25,0,0.46-0.07,0.62-0.2C255.94,123.16,256.07,122.94,256.15,122.64z M256.24,121.05c-0.01-0.46-0.13-0.8-0.35-1.04
		c-0.22-0.24-0.5-0.36-0.82-0.36c-0.34,0-0.63,0.12-0.85,0.38s-0.33,0.59-0.33,1.02H256.24z"/>
	<path class="st3" d="M261.93,118.58v1.26h-1.08v2.4c0,0.49,0.01,0.77,0.03,0.85c0.02,0.08,0.07,0.15,0.14,0.2
		c0.07,0.05,0.16,0.08,0.27,0.08c0.15,0,0.36-0.05,0.63-0.15l0.13,1.22c-0.37,0.16-0.78,0.24-1.25,0.24c-0.28,0-0.54-0.05-0.77-0.14
		c-0.23-0.09-0.4-0.22-0.5-0.37s-0.18-0.36-0.22-0.62c-0.03-0.18-0.05-0.55-0.05-1.11v-2.6h-0.72v-1.26h0.72v-1.19l1.58-0.92v2.11
		H261.93z"/>
	<path class="st3" d="M264.24,124.54l-1.89-5.96h1.53l1.12,3.91l1.03-3.91h1.52l0.99,3.91l1.14-3.91h1.56l-1.92,5.96h-1.52
		l-1.03-3.83l-1.01,3.83H264.24z"/>
	<path class="st3" d="M271.82,121.47c0-0.52,0.13-1.03,0.39-1.52c0.26-0.49,0.62-0.86,1.1-1.12c0.47-0.26,1-0.39,1.59-0.39
		c0.9,0,1.64,0.29,2.22,0.88s0.87,1.33,0.87,2.22c0,0.9-0.29,1.65-0.87,2.24c-0.58,0.59-1.31,0.89-2.2,0.89
		c-0.55,0-1.07-0.12-1.56-0.37c-0.5-0.25-0.87-0.61-1.13-1.09C271.95,122.74,271.82,122.16,271.82,121.47z M273.43,121.56
		c0,0.59,0.14,1.04,0.42,1.36c0.28,0.31,0.63,0.47,1.04,0.47c0.41,0,0.76-0.16,1.04-0.47c0.28-0.31,0.42-0.77,0.42-1.37
		c0-0.58-0.14-1.03-0.42-1.35c-0.28-0.31-0.62-0.47-1.04-0.47c-0.41,0-0.76,0.16-1.04,0.47
		C273.57,120.51,273.43,120.97,273.43,121.56z"/>
	<path class="st3" d="M280.82,124.54h-1.58v-5.96h1.47v0.85c0.25-0.4,0.48-0.67,0.68-0.79s0.43-0.19,0.68-0.19
		c0.36,0,0.71,0.1,1.04,0.3l-0.49,1.38c-0.27-0.17-0.51-0.26-0.74-0.26c-0.22,0-0.41,0.06-0.56,0.18c-0.15,0.12-0.27,0.34-0.36,0.66
		s-0.13,0.98-0.13,2V124.54z"/>
	<path class="st3" d="M283.83,124.54v-8.23h1.58v4.37l1.85-2.1h1.94l-2.04,2.18l2.18,3.79h-1.7l-1.5-2.68l-0.74,0.77v1.91H283.83z"
		/>
</g>
</svg>
